<svg xmlns="http://www.w3.org/2000/svg" viewBox="0 0 32 32">
  <!-- Outer circle (chip base) -->
  <circle cx="16" cy="16" r="15" fill="#c41e3a" stroke="#8b0000" stroke-width="1"/>
  
  <!-- Edge markings (white stripes) -->
  <g transform="rotate(0 16 16)">
    <rect x="15" y="1" width="2" height="6" fill="white"/>
  </g>
  <g transform="rotate(45 16 16)">
    <rect x="15" y="1" width="2" height="6" fill="white"/>
  </g>
  <g transform="rotate(90 16 16)">
    <rect x="15" y="1" width="2" height="6" fill="white"/>
  </g>
  <g transform="rotate(135 16 16)">
    <rect x="15" y="1" width="2" height="6" fill="white"/>
  </g>
  <g transform="rotate(180 16 16)">
    <rect x="15" y="1" width="2" height="6" fill="white"/>
  </g>
  <g transform="rotate(225 16 16)">
    <rect x="15" y="1" width="2" height="6" fill="white"/>
  </g>
  <g transform="rotate(270 16 16)">
    <rect x="15" y="1" width="2" height="6" fill="white"/>
  </g>
  <g transform="rotate(315 16 16)">
    <rect x="15" y="1" width="2" height="6" fill="white"/>
  </g>
  
  <!-- Inner circle -->
  <circle cx="16" cy="16" r="10" fill="white"/>
  
  <!-- Center design - spade symbol -->
  <path d="M16 8 C13 8, 10 10, 10 13 C10 15, 11 16, 12.5 16 C13.5 16, 14.5 15.5, 15 14.5 L15 18 L13 18 L13 20 L19 20 L19 18 L17 18 L17 14.5 C17.5 15.5, 18.5 16, 19.5 16 C21 16, 22 15, 22 13 C22 10, 19 8, 16 8 Z" fill="#c41e3a"/>
</svg> 